<svg width="496" height="496" viewBox="0 0 496 496" fill="none" xmlns="http://www.w3.org/2000/svg">
<rect width="496" height="496" rx="13" fill="#FAFAFA"/>
<path d="M116.4 383.4C125.933 383.4 133.333 385.4 138.6 389.4C143.933 393.333 146.6 399.133 146.6 406.8C146.6 414.733 144.067 420.8 139 425C134 429.2 127.233 431.3 118.7 431.3H111.9V453H91.3V383.4H116.4ZM116.7 416.8C122.633 416.8 125.6 413.467 125.6 406.8C125.6 400.733 122.433 397.7 116.1 397.7H111.9V416.8H116.7ZM209.233 429.4C209.233 434.267 208.166 438.633 206.033 442.5C203.899 446.367 200.666 449.433 196.333 451.7C191.999 453.9 186.666 455 180.333 455C170.799 455 163.599 452.7 158.733 448.1C153.866 443.5 151.433 437.267 151.433 429.4V383.4H172.033V428.8C172.033 432.733 172.666 435.633 173.933 437.5C175.266 439.3 177.399 440.2 180.333 440.2C183.266 440.2 185.366 439.3 186.633 437.5C187.966 435.633 188.633 432.733 188.633 428.8V383.4H209.233V429.4ZM241.9 381.4C252.5 381.4 261.067 384.567 267.6 390.9L258.5 401.6C253.833 397.867 248.867 396 243.6 396C241.133 396 239.267 396.433 238 397.3C236.733 398.167 236.1 399.4 236.1 401C236.1 402.2 236.433 403.2 237.1 404C237.833 404.733 239 405.433 240.6 406.1C242.267 406.767 244.933 407.7 248.6 408.9C255.933 411.233 261.2 414.167 264.4 417.7C267.667 421.233 269.3 426.067 269.3 432.2C269.3 436.667 268.1 440.633 265.7 444.1C263.367 447.5 260 450.167 255.6 452.1C251.2 454.033 246 455 240 455C233.867 455 228.467 454.033 223.8 452.1C219.133 450.167 215.2 447.633 212 444.5L222.1 433.4C227.367 437.933 233.067 440.2 239.2 440.2C242.067 440.2 244.233 439.633 245.7 438.5C247.167 437.3 247.9 435.767 247.9 433.9C247.9 432.5 247.567 431.333 246.9 430.4C246.3 429.467 245.2 428.6 243.6 427.8C242 427 239.667 426.133 236.6 425.2C228.533 422.667 222.9 419.633 219.7 416.1C216.5 412.5 214.9 408.033 214.9 402.7C214.9 398.367 216.067 394.6 218.4 391.4C220.733 388.2 223.933 385.733 228 384C232.133 382.267 236.767 381.4 241.9 381.4ZM305.289 381.4C315.689 381.4 323.689 384.633 329.289 391.1C334.956 397.5 337.789 406.5 337.789 418.1C337.789 425.633 336.522 432.167 333.989 437.7C331.456 443.233 327.756 447.5 322.889 450.5C318.022 453.5 312.156 455 305.289 455C294.889 455 286.856 451.767 281.189 445.3C275.589 438.767 272.789 429.7 272.789 418.1C272.789 410.567 274.056 404.067 276.589 398.6C279.122 393.067 282.822 388.833 287.689 385.9C292.556 382.9 298.422 381.4 305.289 381.4ZM305.289 396C301.356 396 298.522 397.7 296.789 401.1C295.056 404.433 294.189 410.1 294.189 418.1C294.189 426.1 295.056 431.833 296.789 435.3C298.522 438.7 301.356 440.4 305.289 440.4C309.289 440.4 312.122 438.7 313.789 435.3C315.522 431.9 316.389 426.167 316.389 418.1C316.389 410.1 315.522 404.433 313.789 401.1C312.056 397.7 309.222 396 305.289 396ZM374.332 381.4C384.732 381.4 392.732 384.633 398.332 391.1C403.999 397.5 406.832 406.5 406.832 418.1C406.832 425.633 405.565 432.167 403.032 437.7C400.499 443.233 396.799 447.5 391.932 450.5C387.065 453.5 381.199 455 374.332 455C363.932 455 355.899 451.767 350.232 445.3C344.632 438.767 341.832 429.7 341.832 418.1C341.832 410.567 343.099 404.067 345.632 398.6C348.165 393.067 351.865 388.833 356.732 385.9C361.599 382.9 367.465 381.4 374.332 381.4ZM374.332 396C370.399 396 367.565 397.7 365.832 401.1C364.099 404.433 363.232 410.1 363.232 418.1C363.232 426.1 364.099 431.833 365.832 435.3C367.565 438.7 370.399 440.4 374.332 440.4C378.332 440.4 381.165 438.7 382.832 435.3C384.565 431.9 385.432 426.167 385.432 418.1C385.432 410.1 384.565 404.433 382.832 401.1C381.099 397.7 378.265 396 374.332 396Z" fill="#09090B"/>
<path d="M225.483 54C235.491 36.6667 260.509 36.6667 270.517 54L422.937 318C432.945 335.333 420.435 357 400.42 357H95.5796C75.5648 357 63.0555 335.333 73.0629 318L225.483 54Z" fill="#8B0D17"/>
<path d="M276.617 303.627C263.894 325.615 232.14 325.585 219.459 303.572L169.322 216.539C156.641 194.526 172.545 167.042 197.948 167.066L298.39 167.163C323.794 167.187 339.645 194.703 326.922 216.69L276.617 303.627Z" fill="#FAFAFA"/>
<path d="M244.036 249C245.576 246.333 249.425 246.333 250.964 249L264.387 272.25C265.927 274.917 264.003 278.25 260.923 278.25H234.077C230.997 278.25 229.073 274.917 230.613 272.25L244.036 249Z" fill="#8B0D17"/>
<path d="M209.044 227.05C207.51 229.72 203.661 229.728 202.116 227.065L192.112 209.826C190.567 207.163 192.484 203.825 195.563 203.819L215.494 203.775C218.573 203.768 220.505 207.097 218.971 209.767L209.044 227.05Z" fill="#09090B"/>
<path d="M292.044 227.05C290.51 229.72 286.661 229.728 285.116 227.065L275.112 209.826C273.567 207.163 275.484 203.825 278.563 203.819L298.494 203.775C301.573 203.768 303.505 207.097 301.971 209.767L292.044 227.05Z" fill="#09090B"/>
</svg>
