<svg width="95" height="96" viewBox="0 0 95 96" fill="none" xmlns="http://www.w3.org/2000/svg">
<rect y="0.394226" width="95" height="95" fill="black"/>
<rect y="1.0437" width="95" height="80.4124" stroke="black"/>
<path d="M15.8337 26.9973H79.1667C82.5651 26.9973 84.5837 29.2528 84.5837 31.1985V68.054C84.5837 69.9997 82.5651 72.2551 79.1667 72.2551H15.8337C12.4352 72.2551 10.4167 69.9997 10.4167 68.054V31.1985C10.4167 29.2528 12.4352 26.9973 15.8337 26.9973Z" stroke="white" stroke-width="5" stroke-linecap="round" stroke-linejoin="round"/>
<path d="M19.22 49.83L20.84 51.39V55.065L19.22 56.535V49.83ZM20.945 50.37C20.595 50.08 20.245 49.805 19.895 49.545L20.945 48.75H25.055L26.105 49.545L25.055 50.37H20.945ZM19.655 41.955H26.345L24.89 43.575H21.185L19.655 41.955ZM19.175 49.305V42.6L20.795 44.055V47.775L19.175 49.305ZM26.825 42.6V49.305L25.205 47.85V44.145L26.825 42.6ZM31.6521 57.195L33.1971 55.575H36.9021L38.3571 57.195H31.6521ZM31.2021 49.83L32.8221 51.39V55.065L31.2021 56.535V49.83ZM38.8371 56.535L37.2171 54.99V51.3L38.8371 49.83V56.535ZM31.1571 49.305V42.6L32.7771 44.055V47.775L31.1571 49.305ZM38.7921 42.6V49.305L37.1721 47.85V44.145L38.7921 42.6ZM46.0491 49.68H47.9391V51.555H46.0491V49.68ZM46.0491 45.225H47.9391V47.145H46.0491V45.225ZM55.6462 57.195L57.1912 55.575H60.8962L62.3512 57.195H55.6462ZM62.8312 56.535L61.2112 54.99V51.3L62.8312 49.83V56.535ZM56.9362 50.37C56.5862 50.09 56.2312 49.815 55.8712 49.545L56.9362 48.75H61.0312L62.0812 49.545L61.0312 50.37H56.9362ZM55.6312 41.955H62.3362L60.8512 43.575H57.1762L55.6312 41.955ZM55.1512 49.305V42.6L56.7712 44.055V47.775L55.1512 49.305ZM67.6433 57.195L69.1883 55.575H72.8933L74.3483 57.195H67.6433ZM67.1933 49.83L68.8133 51.39V55.065L67.1933 56.535V49.83ZM74.8283 56.535L73.2083 54.99V51.3L74.8283 49.83V56.535ZM67.6283 41.955H74.3333L72.8483 43.575H69.1733L67.6283 41.955ZM67.1483 49.305V42.6L68.7683 44.055V47.775L67.1483 49.305ZM74.7833 42.6V49.305L73.1633 47.85V44.145L74.7833 42.6Z" fill="white"/>
</svg>
